<svg width="268" height="228" viewBox="0 0 268 228" fill="none" xmlns="http://www.w3.org/2000/svg">
<g filter="url(#filter0_d_1_27)">
<rect x="6" y="4" width="248" height="208" rx="30" fill="white"/>
</g>
<rect x="29" y="92" width="12" height="57" rx="6" fill="url(#paint0_linear_1_27)"/>
<rect x="56" y="70" width="12" height="79" rx="6" fill="url(#paint1_linear_1_27)"/>
<rect x="83" y="53" width="12" height="96" rx="6" fill="url(#paint2_linear_1_27)"/>
<rect x="110" y="29" width="12" height="120" rx="6" fill="url(#paint3_linear_1_27)"/>
<rect x="137" y="70" width="12" height="79" rx="6" fill="url(#paint4_linear_1_27)"/>
<rect x="164" y="46" width="12" height="103" rx="6" fill="url(#paint5_linear_1_27)"/>
<rect x="191" y="61" width="12" height="88" rx="6" fill="url(#paint6_linear_1_27)"/>
<rect x="218" y="35" width="12" height="114" rx="6" fill="url(#paint7_linear_1_27)"/>
<path d="M38.9369 187.22C37.7342 187.22 36.7002 187.051 35.8349 186.714C34.9842 186.362 34.3242 185.856 33.8549 185.196C33.4002 184.536 33.1729 183.744 33.1729 182.82C33.1729 182.087 33.3196 181.441 33.6129 180.884C33.9209 180.312 34.3389 179.85 34.8669 179.498C35.3949 179.146 35.9962 178.926 36.6709 178.838V179.3C35.7322 179.095 34.9769 178.647 34.4049 177.958C33.8476 177.254 33.5689 176.418 33.5689 175.45C33.5689 174.57 33.7889 173.822 34.2289 173.206C34.6689 172.575 35.2922 172.099 36.0989 171.776C36.9056 171.439 37.8516 171.27 38.9369 171.27C40.0369 171.27 40.9902 171.439 41.7969 171.776C42.6036 172.099 43.2269 172.575 43.6669 173.206C44.1069 173.822 44.3269 174.57 44.3269 175.45C44.3269 176.095 44.1949 176.689 43.9309 177.232C43.6816 177.775 43.3222 178.222 42.8529 178.574C42.3982 178.926 41.8629 179.161 41.2469 179.278V178.838C42.2736 178.985 43.1022 179.417 43.7329 180.136C44.3782 180.84 44.7009 181.735 44.7009 182.82C44.7009 183.744 44.4662 184.536 43.9969 185.196C43.5422 185.856 42.8822 186.362 42.0169 186.714C41.1662 187.051 40.1396 187.22 38.9369 187.22ZM38.9369 185.02C39.9782 185.02 40.7629 184.822 41.2909 184.426C41.8189 184.015 42.0829 183.414 42.0829 182.622C42.0829 181.83 41.8189 181.236 41.2909 180.84C40.7629 180.444 39.9782 180.246 38.9369 180.246C37.9102 180.246 37.1256 180.444 36.5829 180.84C36.0549 181.236 35.7909 181.83 35.7909 182.622C35.7909 183.414 36.0549 184.015 36.5829 184.426C37.1256 184.822 37.9102 185.02 38.9369 185.02ZM38.9369 178.046C39.5236 178.046 40.0222 177.958 40.4329 177.782C40.8436 177.591 41.1589 177.32 41.3789 176.968C41.5989 176.616 41.7089 176.205 41.7089 175.736C41.7089 175.032 41.4596 174.482 40.9609 174.086C40.4769 173.675 39.8022 173.47 38.9369 173.47C38.0716 173.47 37.3969 173.675 36.9129 174.086C36.4289 174.482 36.1869 175.032 36.1869 175.736C36.1869 176.455 36.4289 177.019 36.9129 177.43C37.3969 177.841 38.0716 178.046 38.9369 178.046ZM52.1283 187.22C50.295 187.22 48.8943 186.531 47.9263 185.152C46.9583 183.759 46.4743 181.779 46.4743 179.212C46.4743 177.481 46.687 176.029 47.1123 174.856C47.5523 173.668 48.1903 172.773 49.0263 172.172C49.877 171.571 50.911 171.27 52.1283 171.27C53.9763 171.27 55.377 171.945 56.3303 173.294C57.2983 174.643 57.7823 176.609 57.7823 179.19C57.7823 180.906 57.5623 182.365 57.1223 183.568C56.697 184.756 56.0663 185.665 55.2303 186.296C54.3943 186.912 53.3603 187.22 52.1283 187.22ZM52.1283 184.91C53.1257 184.91 53.859 184.448 54.3283 183.524C54.8123 182.6 55.0543 181.155 55.0543 179.19C55.0543 177.225 54.8123 175.802 54.3283 174.922C53.859 174.027 53.1257 173.58 52.1283 173.58C51.1457 173.58 50.4123 174.027 49.9283 174.922C49.4443 175.802 49.2023 177.225 49.2023 179.19C49.2023 181.155 49.4443 182.6 49.9283 183.524C50.4123 184.448 51.1457 184.91 52.1283 184.91ZM65.3197 187.22C63.4864 187.22 62.0857 186.531 61.1177 185.152C60.1497 183.759 59.6657 181.779 59.6657 179.212C59.6657 177.481 59.8784 176.029 60.3037 174.856C60.7437 173.668 61.3817 172.773 62.2177 172.172C63.0684 171.571 64.1024 171.27 65.3197 171.27C67.1677 171.27 68.5684 171.945 69.5217 173.294C70.4897 174.643 70.9737 176.609 70.9737 179.19C70.9737 180.906 70.7537 182.365 70.3137 183.568C69.8884 184.756 69.2577 185.665 68.4217 186.296C67.5857 186.912 66.5517 187.22 65.3197 187.22ZM65.3197 184.91C66.3171 184.91 67.0504 184.448 67.5197 183.524C68.0037 182.6 68.2457 181.155 68.2457 179.19C68.2457 177.225 68.0037 175.802 67.5197 174.922C67.0504 174.027 66.3171 173.58 65.3197 173.58C64.3371 173.58 63.6037 174.027 63.1197 174.922C62.6357 175.802 62.3937 177.225 62.3937 179.19C62.3937 181.155 62.6357 182.6 63.1197 183.524C63.6037 184.448 64.3371 184.91 65.3197 184.91ZM78.5111 186.296C78.1885 186.296 77.9391 186.208 77.7631 186.032C77.5871 185.841 77.4991 185.585 77.4991 185.262V181.654H73.9571C73.6491 181.654 73.4071 181.573 73.2311 181.412C73.0551 181.236 72.9671 180.994 72.9671 180.686C72.9671 180.378 73.0551 180.143 73.2311 179.982C73.4071 179.806 73.6491 179.718 73.9571 179.718H77.4991V176.22C77.4991 175.897 77.5871 175.648 77.7631 175.472C77.9391 175.296 78.1958 175.208 78.5331 175.208C78.8558 175.208 79.0978 175.296 79.2591 175.472C79.4351 175.648 79.5231 175.897 79.5231 176.22V179.718H83.0651C83.3878 179.718 83.6298 179.806 83.7911 179.982C83.9671 180.143 84.0551 180.378 84.0551 180.686C84.0551 180.994 83.9671 181.236 83.7911 181.412C83.6298 181.573 83.3878 181.654 83.0651 181.654H79.5231V185.262C79.5231 185.585 79.4351 185.841 79.2591 186.032C79.0978 186.208 78.8485 186.296 78.5111 186.296ZM94.1772 187.176C93.7225 187.176 93.3705 187.051 93.1212 186.802C92.8865 186.538 92.7692 186.179 92.7692 185.724V172.92C92.7692 172.451 92.8939 172.099 93.1432 171.864C93.3925 171.615 93.7445 171.49 94.1992 171.49H99.5012C101.203 171.49 102.515 171.915 103.439 172.766C104.363 173.617 104.825 174.805 104.825 176.33C104.825 177.855 104.363 179.051 103.439 179.916C102.515 180.767 101.203 181.192 99.5012 181.192H95.5852V185.724C95.5852 186.179 95.4679 186.538 95.2332 186.802C94.9985 187.051 94.6465 187.176 94.1772 187.176ZM95.5852 178.97H99.0612C100.059 178.97 100.814 178.75 101.327 178.31C101.841 177.855 102.097 177.195 102.097 176.33C102.097 175.465 101.841 174.812 101.327 174.372C100.814 173.932 100.059 173.712 99.0612 173.712H95.5852V178.97ZM111.622 187.22C110.404 187.22 109.356 186.993 108.476 186.538C107.596 186.083 106.914 185.438 106.43 184.602C105.96 183.766 105.726 182.776 105.726 181.632C105.726 180.517 105.953 179.542 106.408 178.706C106.877 177.87 107.515 177.217 108.322 176.748C109.143 176.264 110.074 176.022 111.116 176.022C111.878 176.022 112.56 176.147 113.162 176.396C113.778 176.645 114.298 177.005 114.724 177.474C115.164 177.943 115.494 178.515 115.714 179.19C115.948 179.85 116.066 180.598 116.066 181.434C116.066 181.698 115.97 181.903 115.78 182.05C115.604 182.182 115.347 182.248 115.01 182.248H107.948V180.664H114.13L113.778 180.994C113.778 180.319 113.675 179.755 113.47 179.3C113.279 178.845 112.993 178.501 112.612 178.266C112.245 178.017 111.783 177.892 111.226 177.892C110.61 177.892 110.082 178.039 109.642 178.332C109.216 178.611 108.886 179.014 108.652 179.542C108.432 180.055 108.322 180.671 108.322 181.39V181.544C108.322 182.747 108.6 183.649 109.158 184.25C109.73 184.837 110.566 185.13 111.666 185.13C112.047 185.13 112.472 185.086 112.942 184.998C113.426 184.895 113.88 184.727 114.306 184.492C114.614 184.316 114.885 184.243 115.12 184.272C115.354 184.287 115.538 184.367 115.67 184.514C115.816 184.661 115.904 184.844 115.934 185.064C115.963 185.269 115.919 185.482 115.802 185.702C115.699 185.922 115.516 186.113 115.252 186.274C114.738 186.597 114.144 186.839 113.47 187C112.81 187.147 112.194 187.22 111.622 187.22ZM123.149 187.22C122.035 187.22 121.067 186.993 120.245 186.538C119.424 186.083 118.786 185.438 118.331 184.602C117.877 183.751 117.649 182.754 117.649 181.61C117.649 180.745 117.774 179.975 118.023 179.3C118.287 178.611 118.661 178.024 119.145 177.54C119.629 177.041 120.209 176.667 120.883 176.418C121.558 176.154 122.313 176.022 123.149 176.022C124.264 176.022 125.232 176.249 126.053 176.704C126.875 177.159 127.513 177.804 127.967 178.64C128.422 179.476 128.649 180.466 128.649 181.61C128.649 182.475 128.517 183.253 128.253 183.942C128.004 184.631 127.637 185.225 127.153 185.724C126.669 186.208 126.09 186.582 125.415 186.846C124.741 187.095 123.985 187.22 123.149 187.22ZM123.149 185.13C123.692 185.13 124.169 184.998 124.579 184.734C124.99 184.47 125.305 184.081 125.525 183.568C125.76 183.04 125.877 182.387 125.877 181.61C125.877 180.437 125.628 179.564 125.129 178.992C124.631 178.405 123.971 178.112 123.149 178.112C122.607 178.112 122.13 178.244 121.719 178.508C121.309 178.757 120.986 179.146 120.751 179.674C120.531 180.187 120.421 180.833 120.421 181.61C120.421 182.769 120.671 183.649 121.169 184.25C121.668 184.837 122.328 185.13 123.149 185.13ZM132.283 191.136C131.843 191.136 131.506 191.019 131.271 190.784C131.037 190.549 130.919 190.205 130.919 189.75V177.452C130.919 176.997 131.037 176.653 131.271 176.418C131.506 176.183 131.836 176.066 132.261 176.066C132.701 176.066 133.039 176.183 133.273 176.418C133.508 176.653 133.625 176.997 133.625 177.452V179.168L133.383 178.508C133.603 177.76 134.051 177.159 134.725 176.704C135.415 176.249 136.214 176.022 137.123 176.022C138.062 176.022 138.883 176.249 139.587 176.704C140.306 177.159 140.863 177.804 141.259 178.64C141.655 179.461 141.853 180.451 141.853 181.61C141.853 182.754 141.655 183.751 141.259 184.602C140.863 185.438 140.313 186.083 139.609 186.538C138.905 186.993 138.077 187.22 137.123 187.22C136.229 187.22 135.444 187 134.769 186.56C134.095 186.105 133.64 185.519 133.405 184.8H133.669V189.75C133.669 190.205 133.545 190.549 133.295 190.784C133.061 191.019 132.723 191.136 132.283 191.136ZM136.353 185.13C136.896 185.13 137.373 184.998 137.783 184.734C138.194 184.47 138.509 184.081 138.729 183.568C138.964 183.04 139.081 182.387 139.081 181.61C139.081 180.437 138.832 179.564 138.333 178.992C137.835 178.405 137.175 178.112 136.353 178.112C135.811 178.112 135.334 178.244 134.923 178.508C134.513 178.757 134.19 179.146 133.955 179.674C133.735 180.187 133.625 180.833 133.625 181.61C133.625 182.769 133.875 183.649 134.373 184.25C134.872 184.837 135.532 185.13 136.353 185.13ZM147.785 187.22C146.567 187.22 145.651 186.875 145.035 186.186C144.419 185.482 144.111 184.455 144.111 183.106V172.7C144.111 172.245 144.228 171.901 144.463 171.666C144.697 171.431 145.035 171.314 145.475 171.314C145.915 171.314 146.252 171.431 146.487 171.666C146.736 171.901 146.861 172.245 146.861 172.7V182.974C146.861 183.649 147 184.147 147.279 184.47C147.572 184.793 147.983 184.954 148.511 184.954C148.628 184.954 148.738 184.954 148.841 184.954C148.943 184.939 149.046 184.925 149.149 184.91C149.354 184.881 149.493 184.939 149.567 185.086C149.64 185.218 149.677 185.497 149.677 185.922C149.677 186.289 149.603 186.575 149.457 186.78C149.31 186.985 149.068 187.11 148.731 187.154C148.584 187.169 148.43 187.183 148.269 187.198C148.107 187.213 147.946 187.22 147.785 187.22ZM156.331 187.22C155.113 187.22 154.065 186.993 153.185 186.538C152.305 186.083 151.623 185.438 151.139 184.602C150.669 183.766 150.435 182.776 150.435 181.632C150.435 180.517 150.662 179.542 151.117 178.706C151.586 177.87 152.224 177.217 153.031 176.748C153.852 176.264 154.783 176.022 155.825 176.022C156.587 176.022 157.269 176.147 157.871 176.396C158.487 176.645 159.007 177.005 159.433 177.474C159.873 177.943 160.203 178.515 160.423 179.19C160.657 179.85 160.775 180.598 160.775 181.434C160.775 181.698 160.679 181.903 160.489 182.05C160.313 182.182 160.056 182.248 159.719 182.248H152.657V180.664H158.839L158.487 180.994C158.487 180.319 158.384 179.755 158.179 179.3C157.988 178.845 157.702 178.501 157.321 178.266C156.954 178.017 156.492 177.892 155.935 177.892C155.319 177.892 154.791 178.039 154.351 178.332C153.925 178.611 153.595 179.014 153.361 179.542C153.141 180.055 153.031 180.671 153.031 181.39V181.544C153.031 182.747 153.309 183.649 153.867 184.25C154.439 184.837 155.275 185.13 156.375 185.13C156.756 185.13 157.181 185.086 157.651 184.998C158.135 184.895 158.589 184.727 159.015 184.492C159.323 184.316 159.594 184.243 159.829 184.272C160.063 184.287 160.247 184.367 160.379 184.514C160.525 184.661 160.613 184.844 160.643 185.064C160.672 185.269 160.628 185.482 160.511 185.702C160.408 185.922 160.225 186.113 159.961 186.274C159.447 186.597 158.853 186.839 158.179 187C157.519 187.147 156.903 187.22 156.331 187.22ZM172.863 187.22C172.232 187.22 171.565 187.154 170.861 187.022C170.157 186.89 169.526 186.663 168.969 186.34C168.734 186.193 168.566 186.025 168.463 185.834C168.375 185.629 168.338 185.431 168.353 185.24C168.382 185.035 168.456 184.859 168.573 184.712C168.705 184.565 168.866 184.47 169.057 184.426C169.262 184.382 169.482 184.419 169.717 184.536C170.304 184.815 170.854 185.013 171.367 185.13C171.88 185.233 172.386 185.284 172.885 185.284C173.589 185.284 174.11 185.167 174.447 184.932C174.799 184.683 174.975 184.36 174.975 183.964C174.975 183.627 174.858 183.37 174.623 183.194C174.403 183.003 174.066 182.864 173.611 182.776L171.411 182.358C170.502 182.182 169.805 181.852 169.321 181.368C168.852 180.869 168.617 180.231 168.617 179.454C168.617 178.75 168.808 178.141 169.189 177.628C169.585 177.115 170.128 176.719 170.817 176.44C171.506 176.161 172.298 176.022 173.193 176.022C173.838 176.022 174.44 176.095 174.997 176.242C175.569 176.374 176.119 176.587 176.647 176.88C176.867 176.997 177.014 177.151 177.087 177.342C177.175 177.533 177.197 177.731 177.153 177.936C177.109 178.127 177.021 178.303 176.889 178.464C176.757 178.611 176.588 178.706 176.383 178.75C176.192 178.779 175.972 178.735 175.723 178.618C175.268 178.383 174.828 178.215 174.403 178.112C173.992 178.009 173.596 177.958 173.215 177.958C172.496 177.958 171.961 178.083 171.609 178.332C171.272 178.581 171.103 178.911 171.103 179.322C171.103 179.63 171.206 179.887 171.411 180.092C171.616 180.297 171.932 180.437 172.357 180.51L174.557 180.928C175.51 181.104 176.229 181.427 176.713 181.896C177.212 182.365 177.461 182.996 177.461 183.788C177.461 184.859 177.043 185.702 176.207 186.318C175.371 186.919 174.256 187.22 172.863 187.22ZM183.209 187.22C182.432 187.22 181.735 187.073 181.119 186.78C180.518 186.472 180.041 186.061 179.689 185.548C179.352 185.035 179.183 184.455 179.183 183.81C179.183 183.018 179.389 182.395 179.799 181.94C180.21 181.471 180.877 181.133 181.801 180.928C182.725 180.723 183.965 180.62 185.519 180.62H186.619V182.204H185.541C184.632 182.204 183.906 182.248 183.363 182.336C182.821 182.424 182.432 182.578 182.197 182.798C181.977 183.003 181.867 183.297 181.867 183.678C181.867 184.162 182.036 184.558 182.373 184.866C182.711 185.174 183.18 185.328 183.781 185.328C184.265 185.328 184.691 185.218 185.057 184.998C185.439 184.763 185.739 184.448 185.959 184.052C186.179 183.656 186.289 183.201 186.289 182.688V180.158C186.289 179.425 186.128 178.897 185.805 178.574C185.483 178.251 184.94 178.09 184.177 178.09C183.752 178.09 183.29 178.141 182.791 178.244C182.307 178.347 181.794 178.523 181.251 178.772C180.973 178.904 180.723 178.941 180.503 178.882C180.298 178.823 180.137 178.706 180.019 178.53C179.902 178.339 179.843 178.134 179.843 177.914C179.843 177.694 179.902 177.481 180.019 177.276C180.137 177.056 180.335 176.895 180.613 176.792C181.288 176.513 181.933 176.315 182.549 176.198C183.18 176.081 183.752 176.022 184.265 176.022C185.321 176.022 186.187 176.183 186.861 176.506C187.551 176.829 188.064 177.32 188.401 177.98C188.739 178.625 188.907 179.461 188.907 180.488V185.768C188.907 186.223 188.797 186.575 188.577 186.824C188.357 187.059 188.042 187.176 187.631 187.176C187.221 187.176 186.898 187.059 186.663 186.824C186.443 186.575 186.333 186.223 186.333 185.768V184.712H186.509C186.407 185.225 186.201 185.673 185.893 186.054C185.6 186.421 185.226 186.707 184.771 186.912C184.317 187.117 183.796 187.22 183.209 187.22ZM195.947 187.176C195.58 187.176 195.258 187.081 194.979 186.89C194.715 186.699 194.495 186.406 194.319 186.01L190.821 177.892C190.689 177.569 190.638 177.269 190.667 176.99C190.711 176.711 190.843 176.491 191.063 176.33C191.298 176.154 191.613 176.066 192.009 176.066C192.346 176.066 192.618 176.147 192.823 176.308C193.028 176.455 193.212 176.741 193.373 177.166L196.343 184.58H195.683L198.741 177.144C198.902 176.733 199.086 176.455 199.291 176.308C199.511 176.147 199.804 176.066 200.171 176.066C200.494 176.066 200.75 176.154 200.941 176.33C201.132 176.491 201.249 176.711 201.293 176.99C201.337 177.254 201.286 177.547 201.139 177.87L197.575 186.01C197.414 186.406 197.194 186.699 196.915 186.89C196.651 187.081 196.328 187.176 195.947 187.176ZM208.28 187.22C207.063 187.22 206.014 186.993 205.134 186.538C204.254 186.083 203.572 185.438 203.088 184.602C202.619 183.766 202.384 182.776 202.384 181.632C202.384 180.517 202.611 179.542 203.066 178.706C203.535 177.87 204.173 177.217 204.98 176.748C205.801 176.264 206.733 176.022 207.774 176.022C208.537 176.022 209.219 176.147 209.82 176.396C210.436 176.645 210.957 177.005 211.382 177.474C211.822 177.943 212.152 178.515 212.372 179.19C212.607 179.85 212.724 180.598 212.724 181.434C212.724 181.698 212.629 181.903 212.438 182.05C212.262 182.182 212.005 182.248 211.668 182.248H204.606V180.664H210.788L210.436 180.994C210.436 180.319 210.333 179.755 210.128 179.3C209.937 178.845 209.651 178.501 209.27 178.266C208.903 178.017 208.441 177.892 207.884 177.892C207.268 177.892 206.74 178.039 206.3 178.332C205.875 178.611 205.545 179.014 205.31 179.542C205.09 180.055 204.98 180.671 204.98 181.39V181.544C204.98 182.747 205.259 183.649 205.816 184.25C206.388 184.837 207.224 185.13 208.324 185.13C208.705 185.13 209.131 185.086 209.6 184.998C210.084 184.895 210.539 184.727 210.964 184.492C211.272 184.316 211.543 184.243 211.778 184.272C212.013 184.287 212.196 184.367 212.328 184.514C212.475 184.661 212.563 184.844 212.592 185.064C212.621 185.269 212.577 185.482 212.46 185.702C212.357 185.922 212.174 186.113 211.91 186.274C211.397 186.597 210.803 186.839 210.128 187C209.468 187.147 208.852 187.22 208.28 187.22ZM219.038 187.22C218.099 187.22 217.27 186.993 216.552 186.538C215.848 186.083 215.298 185.438 214.902 184.602C214.506 183.751 214.308 182.754 214.308 181.61C214.308 180.451 214.506 179.461 214.902 178.64C215.298 177.804 215.848 177.159 216.552 176.704C217.27 176.249 218.099 176.022 219.038 176.022C219.932 176.022 220.71 176.242 221.37 176.682C222.044 177.122 222.499 177.701 222.734 178.42H222.492V172.7C222.492 172.245 222.609 171.901 222.844 171.666C223.078 171.431 223.416 171.314 223.856 171.314C224.296 171.314 224.633 171.431 224.868 171.666C225.117 171.901 225.242 172.245 225.242 172.7V185.768C225.242 186.223 225.124 186.575 224.89 186.824C224.655 187.059 224.318 187.176 223.878 187.176C223.438 187.176 223.1 187.059 222.866 186.824C222.631 186.575 222.514 186.223 222.514 185.768V184.052L222.756 184.712C222.536 185.475 222.088 186.083 221.414 186.538C220.739 186.993 219.947 187.22 219.038 187.22ZM219.808 185.13C220.35 185.13 220.827 184.998 221.238 184.734C221.648 184.47 221.964 184.081 222.184 183.568C222.418 183.04 222.536 182.387 222.536 181.61C222.536 180.437 222.286 179.564 221.788 178.992C221.289 178.405 220.629 178.112 219.808 178.112C219.265 178.112 218.788 178.244 218.378 178.508C217.967 178.757 217.644 179.146 217.41 179.674C217.19 180.187 217.08 180.833 217.08 181.61C217.08 182.769 217.329 183.649 217.828 184.25C218.326 184.837 218.986 185.13 219.808 185.13Z" fill="#49B649"/>
<defs>
<filter id="filter0_d_1_27" x="0" y="0" width="268" height="228" filterUnits="userSpaceOnUse" color-interpolation-filters="sRGB">
<feFlood flood-opacity="0" result="BackgroundImageFix"/>
<feColorMatrix in="SourceAlpha" type="matrix" values="0 0 0 0 0 0 0 0 0 0 0 0 0 0 0 0 0 0 127 0" result="hardAlpha"/>
<feOffset dx="4" dy="6"/>
<feGaussianBlur stdDeviation="5"/>
<feComposite in2="hardAlpha" operator="out"/>
<feColorMatrix type="matrix" values="0 0 0 0 0 0 0 0 0 0 0 0 0 0 0 0 0 0 0.1 0"/>
<feBlend mode="normal" in2="BackgroundImageFix" result="effect1_dropShadow_1_27"/>
<feBlend mode="normal" in="SourceGraphic" in2="effect1_dropShadow_1_27" result="shape"/>
</filter>
<linearGradient id="paint0_linear_1_27" x1="35" y1="92" x2="35" y2="149" gradientUnits="userSpaceOnUse">
<stop stop-color="#49B649" stop-opacity="0.5"/>
<stop offset="1" stop-color="#49B649"/>
</linearGradient>
<linearGradient id="paint1_linear_1_27" x1="62" y1="70" x2="62" y2="149" gradientUnits="userSpaceOnUse">
<stop stop-color="#49B649" stop-opacity="0.5"/>
<stop offset="1" stop-color="#49B649"/>
</linearGradient>
<linearGradient id="paint2_linear_1_27" x1="89" y1="53" x2="89" y2="149" gradientUnits="userSpaceOnUse">
<stop stop-color="#49B649" stop-opacity="0.5"/>
<stop offset="1" stop-color="#49B649"/>
</linearGradient>
<linearGradient id="paint3_linear_1_27" x1="116" y1="29" x2="116" y2="149" gradientUnits="userSpaceOnUse">
<stop stop-color="#49B649" stop-opacity="0.5"/>
<stop offset="1" stop-color="#49B649"/>
</linearGradient>
<linearGradient id="paint4_linear_1_27" x1="143" y1="70" x2="143" y2="149" gradientUnits="userSpaceOnUse">
<stop stop-color="#49B649" stop-opacity="0.5"/>
<stop offset="1" stop-color="#49B649"/>
</linearGradient>
<linearGradient id="paint5_linear_1_27" x1="170" y1="46" x2="170" y2="149" gradientUnits="userSpaceOnUse">
<stop stop-color="#49B649" stop-opacity="0.5"/>
<stop offset="1" stop-color="#49B649"/>
</linearGradient>
<linearGradient id="paint6_linear_1_27" x1="197" y1="61" x2="197" y2="149" gradientUnits="userSpaceOnUse">
<stop stop-color="#49B649" stop-opacity="0.5"/>
<stop offset="1" stop-color="#49B649"/>
</linearGradient>
<linearGradient id="paint7_linear_1_27" x1="224" y1="35" x2="224" y2="149" gradientUnits="userSpaceOnUse">
<stop stop-color="#49B649" stop-opacity="0.5"/>
<stop offset="1" stop-color="#49B649"/>
</linearGradient>
</defs>
</svg>
